# xmcd
#
# Track frame offsets:
#	150
#	12287
#	29851
#	47809
#	66465
#	83414
#	100757
#	117362
#	120053
#	147952
#	165916
#	181760
#	197163
#	216679
#
# Disc length: 3152 seconds
#
# Revision: 1
# Processed by: cddbd v1.5.2PL0 Copyright (c) Steve Scherf et al.
# Submitted via: audiograbber 1.83.01
#
DISCID=bf0c4e0e
DTITLE=Intellekt/Dirty Digits - Intellektual Property
DYEAR=2006
DGENRE=R&B
TTITLE0=Page One (Intro)
TTITLE1=Mario Kart (Relivin' It)
TTITLE2=Side Tracks
TTITLE3=On My Day Off
TTITLE4=Microphonetics
TTITLE5=Tale Of 2 Cities, A
TTITLE6=Phenom.Mental
TTITLE7=Enoch Got Soul (Interlude)
TTITLE8=Photos Do Not Bend
TTITLE9=Violated
TTITLE10=Illestrator, The
TTITLE11=Sex Wax
TTITLE12=Freebird... For Ben
TTITLE13=Livin' The Life
EXTD=
EXTT0=
EXTT1=
EXTT2=
EXTT3=
EXTT4=
EXTT5=
EXTT6=
EXTT7=
EXTT8=
EXTT9=
EXTT10=
EXTT11=
EXTT12=
EXTT13=
PLAYORDER=
